<?xml version="1.0" encoding="UTF-8"?>
<svg width="34px" height="40px" viewBox="0 0 34 40" version="1.1" xmlns="http://www.w3.org/2000/svg" xmlns:xlink="http://www.w3.org/1999/xlink">
    <title>modpack-atl</title>
    <g id="Page-2" stroke="none" stroke-width="1" fill="none" fill-rule="evenodd">
        <g id="04.01-Minecraft_D" transform="translate(-416.000000, -984.000000)" fill="#FFFFFF">
            <g id="Modpacks" transform="translate(344.000000, 786.000000)">
                <g id="01.-Input-/-Game-Option-/-Selected" transform="translate(0.000000, 151.000000)">
                    <g id="logo-(1)" transform="translate(72.000000, 47.000000)">
                        <path d="M16.8628064,0 L22.4296881,3.32502766 L5.56690209,13.3333333 L0,10.030489 L16.8628064,0 Z M18.6462552,7.75838394 L24.245565,4.43335628 L33.7254902,10.1191594 L28.0829427,13.3333333 L18.6462552,7.75838394 L18.6462552,7.75838394 Z" id="Shape"></path>
                        <polygon id="Path" points="0 10 0 30.0110284 17.2740316 40 17.2740316 33.3995615 5.73587847 26.6997842 5.70265946 13.2891735"></polygon>
                        <polygon id="Path" points="33.7254902 29.8929963 16.4514586 40 16.4514586 33.3800761 27.9674797 26.682656 27.9453336 13.2103195 33.7254902 10 33.7254902 29.8929963"></polygon>
                        <polygon id="Path" points="27.9674797 13.3333333 16.4514586 19.7841855 16.4514586 23.2246386 20.9446921 20.6663642 20.9446921 30.8333333 23.8514332 29.1461919 23.8514332 18.9571521 27.9674797 16.553247"></polygon>
                        <path d="M5.75801052,13.3333333 L5.79103902,26.6703318 L8.96179605,28.5364129 L8.96179605,24.4200515 L13.7619592,27.1642993 L13.7619592,31.2916148 L17.2740316,33.3333333 L17.2740316,19.7548488 L5.75801052,13.3333333 Z M13.7399402,24.3322328 L9.00583406,21.6099551 L9.00583406,18.5034783 L13.7399402,21.1379371 L13.7399402,24.3322328 Z" id="Shape"></path>
                    </g>
                </g>
            </g>
        </g>
    </g>
</svg>